<svg width="141" height="23" viewBox="0 0 141 23" fill="none" xmlns="http://www.w3.org/2000/svg">
<path d="M20.3078 11.8844C19.9286 14.1052 19.194 15.9909 18.1039 17.5414C17.0206 19.0919 15.6969 20.2701 14.1328 21.0758C12.5755 21.8815 10.8964 22.2844 9.09531 22.2844C7.20625 22.2844 5.57787 21.8544 4.21016 20.9945C2.84922 20.1346 1.86406 18.8922 1.25469 17.2672C0.645313 15.6354 0.530208 13.6685 0.909375 11.3664C1.275 9.1388 2.00286 7.24974 3.09297 5.69922C4.18307 4.14193 5.51354 2.95703 7.08438 2.14453C8.65521 1.32526 10.3445 0.915623 12.1523 0.915623C14.0279 0.915623 15.6461 1.34896 17.007 2.21562C18.3747 3.08229 19.3599 4.33489 19.9625 5.97344C20.5719 7.60521 20.687 9.57552 20.3078 11.8844ZM15.9305 11.3664C16.1674 9.93776 16.1573 8.73932 15.9 7.77109C15.6495 6.79609 15.1891 6.05807 14.5188 5.55703C13.8484 5.05599 13.0021 4.80547 11.9797 4.80547C10.8693 4.80547 9.85026 5.08307 8.92266 5.63828C8.00182 6.19349 7.22318 6.99922 6.58672 8.05547C5.95703 9.10495 5.52031 10.3812 5.27656 11.8844C5.03281 13.3198 5.03958 14.5182 5.29688 15.4797C5.56094 16.4411 6.03151 17.169 6.70859 17.6633C7.39245 18.1508 8.24219 18.3945 9.25781 18.3945C10.3615 18.3945 11.3703 18.1237 12.2844 17.582C13.2052 17.0336 13.9805 16.238 14.6102 15.1953C15.2398 14.1458 15.6799 12.8695 15.9305 11.3664ZM21.8795 22L25.3326 1.2H29.7303L26.8865 18.3742H35.8037L35.1943 22H21.8795ZM58.0967 11.8844C57.7175 14.1052 56.9829 15.9909 55.8928 17.5414C54.8094 19.0919 53.4857 20.2701 51.9217 21.0758C50.3644 21.8815 48.6852 22.2844 46.8842 22.2844C44.9951 22.2844 43.3667 21.8544 41.999 20.9945C40.6381 20.1346 39.6529 18.8922 39.0436 17.2672C38.4342 15.6354 38.3191 13.6685 38.6982 11.3664C39.0639 9.1388 39.7917 7.24974 40.8818 5.69922C41.9719 4.14193 43.3024 2.95703 44.8732 2.14453C46.4441 1.32526 48.1334 0.915623 49.9412 0.915623C51.8167 0.915623 53.435 1.34896 54.7959 2.21562C56.1636 3.08229 57.1488 4.33489 57.7514 5.97344C58.3607 7.60521 58.4759 9.57552 58.0967 11.8844ZM53.7193 11.3664C53.9563 9.93776 53.9462 8.73932 53.6889 7.77109C53.4384 6.79609 52.9779 6.05807 52.3076 5.55703C51.6373 5.05599 50.791 4.80547 49.7686 4.80547C48.6581 4.80547 47.6391 5.08307 46.7115 5.63828C45.7907 6.19349 45.012 6.99922 44.3756 8.05547C43.7459 9.10495 43.3092 10.3812 43.0654 11.8844C42.8217 13.3198 42.8285 14.5182 43.0857 15.4797C43.3498 16.4411 43.8204 17.169 44.4975 17.6633C45.1813 18.1508 46.0311 18.3945 47.0467 18.3945C48.1503 18.3945 49.1592 18.1237 50.0732 17.582C50.9941 17.0336 51.7693 16.238 52.399 15.1953C53.0287 14.1458 53.4688 12.8695 53.7193 11.3664ZM59.6684 22L63.1215 1.2H67.5191L64.6754 18.3742H73.5926L72.9832 22H59.6684ZM95.8856 11.8844C95.5064 14.1052 94.7718 15.9909 93.6817 17.5414C92.5983 19.0919 91.2746 20.2701 89.7106 21.0758C88.1533 21.8815 86.4741 22.2844 84.6731 22.2844C82.784 22.2844 81.1556 21.8544 79.7879 20.9945C78.427 20.1346 77.4418 18.8922 76.8324 17.2672C76.2231 15.6354 76.108 13.6685 76.4871 11.3664C76.8527 9.1388 77.5806 7.24974 78.6707 5.69922C79.7608 4.14193 81.0913 2.95703 82.6621 2.14453C84.233 1.32526 85.9223 0.915623 87.7301 0.915623C89.6056 0.915623 91.2238 1.34896 92.5848 2.21562C93.9525 3.08229 94.9376 4.33489 95.5402 5.97344C96.1496 7.60521 96.2647 9.57552 95.8856 11.8844ZM91.5082 11.3664C91.7452 9.93776 91.735 8.73932 91.4777 7.77109C91.2272 6.79609 90.7668 6.05807 90.0965 5.55703C89.4262 5.05599 88.5798 4.80547 87.5574 4.80547C86.447 4.80547 85.428 5.08307 84.5004 5.63828C83.5796 6.19349 82.8009 6.99922 82.1645 8.05547C81.5348 9.10495 81.0981 10.3812 80.8543 11.8844C80.6106 13.3198 80.6173 14.5182 80.8746 15.4797C81.1387 16.4411 81.6093 17.169 82.2863 17.6633C82.9702 18.1508 83.8199 18.3945 84.8356 18.3945C85.9392 18.3945 86.9481 18.1237 87.8621 17.582C88.783 17.0336 89.5582 16.238 90.1879 15.1953C90.8176 14.1458 91.2577 12.8695 91.5082 11.3664ZM113.585 7.92344C113.531 7.42917 113.416 6.99245 113.24 6.61328C113.071 6.22734 112.837 5.90234 112.539 5.63828C112.241 5.36745 111.879 5.16094 111.453 5.01875C111.026 4.87656 110.532 4.80547 109.97 4.80547C108.907 4.80547 107.911 5.06953 106.984 5.59765C106.063 6.12578 105.278 6.89427 104.628 7.90312C103.978 8.90521 103.534 10.1307 103.297 11.5797C103.053 13.0286 103.053 14.2609 103.297 15.2766C103.548 16.2922 104.018 17.0674 104.709 17.6023C105.406 18.1305 106.303 18.3945 107.4 18.3945C108.396 18.3945 109.289 18.2185 110.081 17.8664C110.874 17.5076 111.52 17.0031 112.021 16.3531C112.529 15.7031 112.854 14.9346 112.996 14.0477L113.87 14.1797H108.517L109.066 10.8687H117.77L117.323 13.4891C117.032 15.3172 116.392 16.888 115.403 18.2016C114.415 19.5151 113.182 20.524 111.706 21.2281C110.237 21.9323 108.626 22.2844 106.872 22.2844C104.922 22.2844 103.28 21.8544 101.946 20.9945C100.619 20.1279 99.6747 18.899 99.1127 17.3078C98.5575 15.7099 98.4593 13.8141 98.8182 11.6203C99.0958 9.93437 99.59 8.43125 100.301 7.11094C101.019 5.78385 101.896 4.65989 102.931 3.73906C103.967 2.81823 105.115 2.11745 106.374 1.63672C107.641 1.15599 108.957 0.915623 110.325 0.915623C111.503 0.915623 112.57 1.08828 113.524 1.43359C114.486 1.77213 115.309 2.25286 115.992 2.87578C116.683 3.4987 117.204 4.2401 117.556 5.1C117.915 5.95312 118.081 6.89427 118.054 7.92344H113.585ZM140.014 11.8844C139.635 14.1052 138.901 15.9909 137.811 17.5414C136.727 19.0919 135.404 20.2701 133.839 21.0758C132.282 21.8815 130.603 22.2844 128.802 22.2844C126.913 22.2844 125.285 21.8544 123.917 20.9945C122.556 20.1346 121.571 18.8922 120.961 17.2672C120.352 15.6354 120.237 13.6685 120.616 11.3664C120.982 9.1388 121.71 7.24974 122.8 5.69922C123.89 4.14193 125.22 2.95703 126.791 2.14453C128.362 1.32526 130.051 0.915623 131.859 0.915623C133.735 0.915623 135.353 1.34896 136.714 2.21562C138.081 3.08229 139.067 4.33489 139.669 5.97344C140.279 7.60521 140.394 9.57552 140.014 11.8844ZM135.637 11.3664C135.874 9.93776 135.864 8.73932 135.607 7.77109C135.356 6.79609 134.896 6.05807 134.225 5.55703C133.555 5.05599 132.709 4.80547 131.686 4.80547C130.576 4.80547 129.557 5.08307 128.629 5.63828C127.708 6.19349 126.93 6.99922 126.293 8.05547C125.664 9.10495 125.227 10.3812 124.983 11.8844C124.739 13.3198 124.746 14.5182 125.004 15.4797C125.268 16.4411 125.738 17.169 126.415 17.6633C127.099 18.1508 127.949 18.3945 128.964 18.3945C130.068 18.3945 131.077 18.1237 131.991 17.582C132.912 17.0336 133.687 16.238 134.317 15.1953C134.946 14.1458 135.387 12.8695 135.637 11.3664Z" fill="white"/>
</svg>
