<svg id="Capa_1" enable-background="new 0 0 512 512" height="512" viewBox="0 0 512 512" width="512" xmlns="http://www.w3.org/2000/svg"><path d="m408.5 95.005h-25v-60.014c0-11.197-5.417-21.799-14.49-28.36s-20.839-8.386-31.473-4.878l-245.001 80.806c-14.377 4.743-24.036 18.101-24.036 33.239v279.536 81.666c0 19.299 15.701 35 35 35h305c19.299 0 35-15.701 35-35v-346.995c0-19.298-15.701-35-35-35zm5 381.995c0 2.757-2.243 5-5 5h-305c-2.757 0-5-2.243-5-5v-96.665-250.33c0-2.757 2.243-5 5-5h305c2.757 0 5 2.243 5 5zm-66.566-446.757c2.112-.696 3.723.138 4.497.697.773.559 2.07 1.828 2.07 4.051v60.015h-202.923z"/><path d="m156 298.481h18.182 181.818c8.284 0 15-6.716 15-15s-6.716-15-15-15h-4.345c-6.466-41.398-39.257-74.189-80.655-80.655v-7.516c0-8.284-6.716-15-15-15s-15 6.716-15 15v7.516c-41.398 6.466-74.189 39.257-80.655 80.655h-4.345c-8.284 0-15 6.716-15 15s6.716 15 15 15zm100-81.818c31.688 0 58.294 22.174 65.121 51.818h-130.242c6.827-29.644 33.434-51.818 65.121-51.818z"/><path d="m161.817 339.005c-8.284 0-15 6.716-15 15s6.716 15 15 15h72c8.284 0 15-6.716 15-15s-6.716-15-15-15z"/><path d="m352.25 399.005h-192.5c-8.284 0-15 6.716-15 15s6.716 15 15 15h192.5c8.284 0 15-6.716 15-15s-6.716-15-15-15z"/></svg>